<svg xmlns="http://www.w3.org/2000/svg" viewBox="0 0 2896 2172">
  <g fill="#FFFFFF" fill-rule="evenodd">
    <path d="M 836,1612 L 835,1784 L 920,1785 L 922,1783 L 922,1745 L 881,1743 L 881,1719 L 883,1717 L 917,1716 L 917,1678 L 882,1677 L 881,1654 L 883,1652 L 921,1652 L 922,1613 Z" />
    <path d="M 644,1612 L 624,1784 L 671,1785 L 673,1783 L 678,1688 L 680,1688 L 682,1691 L 682,1701 L 684,1707 L 684,1715 L 690,1746 L 695,1783 L 697,1785 L 726,1785 L 733,1783 L 750,1690 L 754,1692 L 757,1783 L 759,1785 L 803,1784 L 803,1767 L 788,1613 L 732,1612 L 724,1651 L 724,1657 L 722,1661 L 718,1693 L 715,1694 L 713,1692 L 711,1670 L 701,1612 Z" />
    <path d="M 321,1612 L 320,1784 L 365,1784 L 366,1717 L 388,1716 L 389,1783 L 391,1785 L 433,1785 L 435,1783 L 435,1613 L 390,1612 L 389,1672 L 382,1674 L 369,1674 L 366,1672 L 366,1613 Z" />
    <path d="M 533,1608 L 517,1611 L 502,1618 L 489,1630 L 482,1640 L 471,1669 L 468,1688 L 468,1707 L 472,1733 L 476,1745 L 487,1765 L 497,1775 L 513,1784 L 524,1787 L 544,1787 L 557,1783 L 566,1778 L 580,1765 L 586,1756 L 592,1743 L 597,1726 L 599,1712 L 599,1683 L 593,1654 L 587,1641 L 579,1629 L 571,1621 L 558,1613 L 550,1610 Z M 531,1652 L 538,1652 L 546,1659 L 552,1682 L 552,1712 L 549,1728 L 544,1739 L 540,1743 L 535,1745 L 529,1744 L 522,1737 L 517,1724 L 515,1707 L 515,1689 L 519,1666 L 523,1658 Z" />
    <path d="M 2340,1490 L 2340,1492 L 2359,1495 L 2358,1491 L 2354,1488 Z" />
    <path d="M 2365,1471 L 2365,1473 L 2370,1473 L 2369,1470 Z" />
    <path d="M 2386,1467 L 2386,1469 L 2392,1469 L 2392,1466 Z" />
    <path d="M 2378,1456 L 2364,1456 L 2362,1457 L 2362,1459 L 2374,1459 L 2378,1458 Z" />
    <path d="M 966,1404 L 966,1565 L 1008,1565 L 1008,1505 L 1011,1504 L 1032,1564 L 1034,1566 L 1077,1566 L 1077,1562 L 1069,1544 L 1063,1534 L 1048,1501 L 1048,1498 L 1056,1493 L 1065,1483 L 1071,1465 L 1071,1449 L 1069,1438 L 1061,1423 L 1055,1416 L 1046,1410 L 1026,1404 Z M 1009,1439 L 1018,1439 L 1022,1441 L 1027,1446 L 1030,1455 L 1030,1461 L 1027,1470 L 1023,1475 L 1014,1479 L 1010,1479 L 1008,1477 Z" />
    <path d="M 455,1404 L 455,1565 L 496,1566 L 497,1404 Z" />
    <path d="M 1169,1404 L 1095,1404 L 1094,1540 L 1096,1566 L 1135,1566 L 1136,1505 L 1138,1503 L 1167,1502 L 1167,1466 L 1138,1465 L 1136,1463 L 1136,1443 L 1170,1440 Z" />
    <path d="M 835,1404 L 834,1522 L 838,1540 L 845,1552 L 850,1557 L 863,1565 L 878,1569 L 898,1569 L 912,1565 L 922,1559 L 931,1550 L 936,1541 L 939,1531 L 941,1501 L 941,1405 L 915,1403 L 899,1404 L 899,1518 L 897,1523 L 892,1528 L 883,1528 L 878,1524 L 875,1516 L 875,1404 Z" />
    <path d="M 707,1404 L 668,1403 L 628,1405 L 628,1559 L 630,1566 L 707,1565 L 707,1528 L 672,1528 L 670,1526 L 671,1503 L 703,1502 L 703,1465 L 672,1465 L 670,1463 L 670,1443 L 672,1441 L 707,1440 Z" />
    <path d="M 518,1404 L 517,1441 L 540,1443 L 542,1445 L 542,1565 L 582,1566 L 583,1445 L 585,1443 L 591,1442 L 608,1442 L 608,1404 Z" />
    <path d="M 321,1404 L 321,1565 L 362,1565 L 363,1499 L 366,1498 L 391,1566 L 435,1566 L 435,1562 L 399,1486 L 401,1476 L 432,1404 L 388,1404 L 365,1468 L 362,1467 L 363,1405 L 346,1403 Z" />
    <path d="M 794,1402 L 770,1401 L 764,1402 L 754,1407 L 743,1417 L 734,1433 L 731,1446 L 731,1464 L 734,1475 L 740,1486 L 752,1498 L 767,1509 L 771,1516 L 770,1523 L 765,1528 L 753,1529 L 745,1526 L 738,1521 L 732,1514 L 730,1514 L 730,1557 L 731,1562 L 736,1565 L 752,1569 L 770,1569 L 783,1565 L 794,1558 L 801,1551 L 811,1531 L 813,1521 L 813,1508 L 809,1493 L 802,1482 L 795,1475 L 778,1463 L 771,1454 L 771,1449 L 773,1445 L 781,1440 L 790,1441 L 799,1446 L 807,1454 L 809,1454 L 809,1410 L 806,1407 Z" />
    <path d="M 1304,1381 L 1285,1398 L 1275,1411 L 1265,1430 L 1259,1451 L 1258,1472 L 1259,1485 L 1263,1503 L 1274,1528 L 1288,1549 L 1288,1551 L 1262,1570 L 1240,1593 L 1228,1613 L 1223,1625 L 1219,1641 L 1218,1675 L 1220,1687 L 1229,1714 L 1240,1733 L 1258,1753 L 1281,1770 L 1293,1776 L 1313,1783 L 1334,1787 L 1353,1788 L 1388,1784 L 1418,1774 L 1444,1761 L 1448,1761 L 1468,1785 L 1587,1784 L 1584,1778 L 1527,1706 L 1527,1703 L 1567,1660 L 1567,1657 L 1521,1597 L 1512,1587 L 1509,1587 L 1470,1628 L 1467,1628 L 1430,1583 L 1430,1580 L 1458,1558 L 1475,1541 L 1491,1517 L 1499,1497 L 1502,1481 L 1501,1448 L 1495,1428 L 1485,1410 L 1469,1391 L 1449,1376 L 1428,1366 L 1404,1360 L 1374,1358 L 1346,1362 L 1327,1368 Z M 1337,1626 L 1342,1624 L 1347,1629 L 1360,1648 L 1387,1682 L 1388,1686 L 1386,1688 L 1370,1695 L 1350,1697 L 1333,1691 L 1325,1684 L 1319,1674 L 1317,1663 L 1318,1653 L 1325,1638 Z M 1388,1435 L 1398,1439 L 1407,1448 L 1410,1454 L 1412,1468 L 1408,1483 L 1400,1495 L 1382,1512 L 1377,1514 L 1363,1495 L 1356,1482 L 1353,1471 L 1353,1461 L 1357,1449 L 1364,1441 L 1373,1436 Z" />
    <path d="M 2028,891 L 1998,918 L 1977,946 L 1957,986 L 1944,1032 L 1942,1083 L 1948,1119 L 1957,1148 L 1976,1186 L 1992,1207 L 2021,1234 L 2044,1246 L 2060,1246 L 2044,1213 L 2039,1182 L 2041,1145 L 2052,1104 L 2073,1058 L 2099,1017 L 2121,990 L 2165,951 L 2145,928 L 2120,908 L 2090,894 L 2070,891 L 2069,888 L 2093,886 L 2125,897 L 2160,922 L 2210,974 L 2228,982 L 2213,1162 L 2252,1223 L 2235,1230 L 2200,1237 L 2169,1204 L 2165,1203 L 2162,1209 L 2191,1239 L 2188,1247 L 2195,1253 L 2219,1247 L 2233,1263 L 2252,1303 L 2290,1333 L 2284,1374 L 2307,1386 L 2320,1380 L 2327,1380 L 2333,1385 L 2332,1390 L 2323,1390 L 2320,1395 L 2280,1379 L 2268,1391 L 2252,1396 L 2247,1389 L 2234,1390 L 2199,1380 L 2187,1380 L 2141,1422 L 2056,1424 L 2033,1429 L 2029,1434 L 2029,1443 L 2042,1468 L 2063,1488 L 2094,1496 L 2190,1504 L 2252,1499 L 2269,1492 L 2282,1479 L 2285,1460 L 2279,1453 L 2281,1448 L 2301,1445 L 2304,1448 L 2303,1455 L 2327,1451 L 2340,1441 L 2347,1419 L 2355,1413 L 2353,1403 L 2369,1377 L 2373,1376 L 2412,1437 L 2420,1468 L 2431,1466 L 2443,1470 L 2447,1460 L 2427,1443 L 2417,1405 L 2400,1374 L 2387,1337 L 2358,1316 L 2358,1306 L 2367,1295 L 2372,1281 L 2372,1272 L 2366,1259 L 2349,1249 L 2329,1253 L 2311,1281 L 2313,1300 L 2309,1306 L 2282,1296 L 2243,1256 L 2242,1239 L 2265,1229 L 2264,1223 L 2231,1182 L 2238,1174 L 2253,991 L 2249,976 L 2186,913 L 2133,882 L 2107,874 L 2080,872 L 2052,878 Z M 2313,1431 L 2313,1435 L 2309,1439 L 2305,1439 L 2301,1430 L 2291,1428 L 2281,1435 L 2271,1449 L 2266,1449 L 2262,1447 L 2262,1443 L 2269,1431 L 2278,1422 L 2289,1417 L 2303,1419 Z M 2340,1398 L 2345,1397 L 2352,1402 L 2352,1404 L 2346,1405 L 2340,1400 Z M 2326,1397 L 2331,1396 L 2336,1398 L 2338,1400 L 2337,1404 L 2335,1406 L 2330,1406 L 2326,1402 Z" />
    <path d="M 1230,853 L 1230,1289 L 1528,1290 L 1528,1169 L 1391,1167 L 1392,1129 L 1512,1128 L 1512,1013 L 1393,1012 L 1391,1010 L 1391,976 L 1524,975 L 1525,853 Z" />
    <path d="M 892,853 L 891,1289 L 1051,1290 L 1052,1139 L 1169,1137 L 1169,1020 L 1054,1019 L 1052,1017 L 1052,981 L 1054,979 L 1183,979 L 1184,853 Z" />
    <path d="M 663,852 L 662,1290 L 823,1290 L 824,854 L 822,852 Z" />
    <path d="M 323,852 L 322,1290 L 618,1290 L 619,1149 L 486,1148 L 484,1146 L 483,852 Z" />
    <path d="M 2086,766 L 1990,782 L 1901,816 L 1821,865 L 1739,942 L 1680,1028 L 1638,1126 L 1615,1232 L 1614,1324 L 1629,1414 L 1670,1522 L 1722,1606 L 1791,1681 L 1875,1741 L 1952,1777 L 2043,1801 L 2145,1807 L 2215,1799 L 2293,1777 L 2411,1715 L 2460,1675 L 2513,1616 L 2557,1547 L 2586,1482 L 2520,1575 L 2442,1648 L 2385,1684 L 2326,1710 L 2217,1732 L 2107,1726 L 1993,1689 L 1884,1616 L 1816,1539 L 1783,1485 L 1751,1409 L 1735,1342 L 1730,1261 L 1737,1188 L 1753,1125 L 1787,1046 L 1825,989 L 1784,1090 L 1768,1162 L 1766,1253 L 1784,1344 L 1820,1426 L 1876,1503 L 1939,1559 L 2012,1602 L 2096,1630 L 2174,1639 L 2262,1630 L 2336,1605 L 2408,1563 L 2470,1507 L 2521,1436 L 2557,1354 L 2504,1437 L 2437,1503 L 2353,1552 L 2266,1576 L 2181,1578 L 2088,1556 L 2002,1510 L 1933,1447 L 1893,1392 L 1859,1321 L 1836,1204 L 1839,1136 L 1861,1051 L 1889,993 L 1923,944 L 1964,901 L 2017,861 L 2078,831 L 2143,813 L 2219,809 L 2281,817 L 2410,865 L 2336,816 L 2248,782 L 2172,768 Z" />
    <path d="M 1624,372 L 1623,768 L 1818,769 L 1843,767 L 1874,761 L 1894,754 L 1918,743 L 1947,723 L 1975,693 L 1990,668 L 2004,628 L 2008,607 L 2010,584 L 2010,557 L 2008,536 L 1999,498 L 1984,466 L 1964,439 L 1946,422 L 1912,400 L 1890,390 L 1848,378 L 1823,374 L 1796,372 Z M 1772,497 L 1794,497 L 1812,501 L 1825,506 L 1838,515 L 1846,523 L 1852,532 L 1858,547 L 1861,564 L 1861,582 L 1859,595 L 1854,610 L 1846,622 L 1838,630 L 1828,637 L 1813,644 L 1789,648 L 1772,648 L 1770,646 L 1770,499 Z" />
    <path d="M 1167,373 L 1168,769 L 1308,768 L 1307,622 L 1299,568 L 1300,561 L 1303,562 L 1428,769 L 1567,768 L 1567,374 L 1565,372 L 1425,373 L 1426,523 L 1436,575 L 1435,586 L 1431,584 L 1305,372 Z" />
    <path d="M 964,372 L 963,768 L 1109,769 L 1110,374 L 1109,372 Z" />
    <path d="M 298,373 L 438,769 L 568,768 L 607,612 L 616,554 L 619,555 L 628,613 L 665,768 L 793,769 L 933,372 L 783,372 L 781,374 L 740,550 L 732,605 L 729,606 L 676,374 L 674,372 L 559,372 L 513,550 L 504,605 L 501,606 L 451,372 Z" />
  </g>
</svg>
