<svg xmlns="http://www.w3.org/2000/svg" viewBox="0 0 48 48" aria-hidden="true">
  <path fill="currentColor" d="M24 4a20 20 0 1 0 0 40 20 20 0 0 0 0-40Zm13.86 18h-6.02a32.2 32.2 0 0 0-2.25-11.03A16.05 16.05 0 0 1 37.86 22ZM24 8.05c1.42 1.73 3.35 6.25 3.82 13.95h-7.64C20.65 14.3 22.58 9.78 24 8.05ZM8.14 26h6.02a32.2 32.2 0 0 0 2.25 11.03A16.05 16.05 0 0 1 8.14 26Zm6.02-4H8.14a16.05 16.05 0 0 1 8.27-11.03A32.2 32.2 0 0 0 14.16 22ZM24 39.95c-1.42-1.73-3.35-6.25-3.82-13.95h7.64C27.35 33.7 25.42 38.22 24 39.95ZM28.04 22h-8.08C20.4 14.55 22.28 10.8 24 8.6c1.72 2.2 3.6 5.95 4.04 13.4Zm1.55 15.03A32.2 32.2 0 0 0 31.84 26h6.02a16.05 16.05 0 0 1-8.27 11.03Z"/>
</svg>
