<svg xmlns="http://www.w3.org/2000/svg" viewBox="0 0 1796 1236">
  <g fill="#000000" fill-rule="evenodd">
    <path d="M 860,861 L 860,874 L 864,877 L 864,882 L 865,883 L 870,883 L 872,885 L 872,886 L 874,887 L 876,889 L 876,890 L 880,893 L 881,895 L 886,895 L 888,897 L 888,898 L 892,901 L 893,903 L 898,903 L 901,907 L 906,907 L 909,911 L 914,911 L 917,915 L 922,915 L 925,919 L 930,919 L 933,923 L 950,923 L 951,921 L 953,919 L 954,919 L 957,915 L 959,914 L 959,901 L 957,900 L 955,898 L 955,897 L 951,894 L 950,892 L 945,892 L 942,888 L 933,888 L 930,884 L 925,884 L 923,882 L 923,881 L 919,878 L 918,876 L 913,876 L 910,872 L 905,872 L 903,870 L 903,869 L 899,866 L 898,864 L 893,864 L 891,862 L 891,861 L 889,860 L 887,858 L 887,857 L 883,854 L 882,852 L 869,852 L 868,854 L 866,856 L 865,856 L 862,860 Z" />
    <path d="M 749,740 L 740,749 L 740,754 L 736,757 L 736,798 L 740,801 L 740,822 L 744,825 L 744,838 L 748,841 L 748,850 L 752,853 L 752,858 L 756,861 L 756,866 L 760,869 L 760,874 L 768,881 L 768,886 L 801,919 L 806,919 L 809,923 L 822,923 L 831,914 L 831,901 L 791,862 L 791,857 L 787,854 L 787,849 L 783,846 L 783,841 L 779,838 L 779,829 L 775,826 L 775,817 L 771,814 L 771,781 L 767,778 L 767,773 L 771,770 L 771,753 L 758,740 Z" />
    <path d="M 812,717 L 810,720 L 805,720 L 804,722 L 800,725 L 800,770 L 804,773 L 804,790 L 808,793 L 808,802 L 812,805 L 812,810 L 816,813 L 816,818 L 820,821 L 820,826 L 824,829 L 824,834 L 828,837 L 828,842 L 830,843 L 833,847 L 850,847 L 851,845 L 853,843 L 854,843 L 857,839 L 859,838 L 859,825 L 855,822 L 855,817 L 851,814 L 851,809 L 849,808 L 847,806 L 847,805 L 843,802 L 843,793 L 839,790 L 839,781 L 835,778 L 835,761 L 831,758 L 831,729 L 827,726 L 827,721 L 826,720 L 817,720 L 815,717 Z" />
    <path d="M 686,524 L 681,524 L 678,520 L 673,520 L 670,524 L 665,524 L 656,533 L 656,538 L 652,541 L 652,546 L 648,549 L 648,554 L 644,557 L 644,562 L 640,565 L 640,570 L 636,573 L 636,578 L 632,581 L 632,590 L 628,593 L 628,598 L 624,601 L 624,606 L 620,609 L 620,618 L 616,621 L 616,626 L 612,629 L 612,638 L 608,641 L 608,646 L 604,649 L 604,658 L 600,661 L 600,666 L 596,669 L 596,674 L 592,677 L 592,686 L 588,689 L 588,694 L 584,697 L 584,702 L 580,705 L 580,710 L 576,713 L 576,718 L 568,725 L 568,730 L 564,733 L 564,738 L 556,745 L 556,750 L 544,761 L 544,766 L 512,797 L 512,802 L 508,805 L 508,814 L 517,823 L 534,823 L 563,794 L 563,789 L 579,774 L 579,769 L 587,762 L 587,757 L 595,750 L 595,745 L 599,742 L 599,737 L 603,734 L 603,729 L 607,726 L 607,721 L 615,714 L 615,705 L 619,702 L 619,697 L 623,694 L 623,689 L 627,686 L 627,681 L 631,678 L 631,669 L 635,666 L 635,661 L 639,658 L 639,649 L 643,646 L 643,641 L 647,638 L 647,629 L 651,626 L 651,621 L 655,618 L 655,613 L 659,610 L 659,601 L 663,598 L 663,593 L 667,590 L 667,585 L 671,582 L 671,577 L 675,574 L 675,569 L 679,566 L 679,561 L 683,558 L 683,553 L 687,550 L 687,545 L 691,542 L 691,533 L 687,530 Z" />
    <path d="M 899,393 L 890,384 L 873,384 L 870,388 L 853,388 L 850,392 L 841,392 L 838,396 L 825,396 L 822,400 L 817,400 L 814,404 L 805,404 L 802,408 L 797,408 L 794,412 L 789,412 L 786,416 L 781,416 L 778,420 L 773,420 L 766,428 L 761,428 L 754,436 L 749,436 L 742,444 L 737,444 L 722,460 L 717,460 L 696,481 L 696,498 L 701,503 L 706,503 L 709,507 L 714,507 L 717,503 L 722,503 L 745,479 L 750,479 L 761,467 L 766,467 L 773,459 L 778,459 L 785,451 L 790,451 L 793,447 L 798,447 L 801,443 L 806,443 L 809,439 L 814,439 L 817,435 L 822,435 L 825,431 L 834,431 L 837,427 L 846,427 L 849,423 L 862,423 L 865,419 L 882,419 L 885,415 L 890,415 L 899,406 Z" />
    <path d="M 654,368 L 641,372 L 608,409 L 608,414 L 592,433 L 588,446 L 580,453 L 568,477 L 568,486 L 556,505 L 556,514 L 548,525 L 492,714 L 460,774 L 430,808 L 425,808 L 406,828 L 401,828 L 382,844 L 342,864 L 333,864 L 322,872 L 313,872 L 298,880 L 285,880 L 266,888 L 245,888 L 242,892 L 225,892 L 216,901 L 216,914 L 225,923 L 274,919 L 277,915 L 306,911 L 309,907 L 342,899 L 353,891 L 362,891 L 386,879 L 393,871 L 406,867 L 429,847 L 434,847 L 483,798 L 483,793 L 499,774 L 519,734 L 523,713 L 531,702 L 531,689 L 543,662 L 543,649 L 547,646 L 547,637 L 559,610 L 559,597 L 563,594 L 583,525 L 591,514 L 591,505 L 631,433 L 667,394 L 667,377 Z" />
    <path d="M 697,328 L 684,341 L 693,363 L 825,319 L 966,323 L 1074,367 L 1140,421 L 1196,513 L 1208,602 L 1180,686 L 1130,736 L 1086,756 L 1032,759 L 1099,702 L 1143,618 L 1143,545 L 1115,477 L 1054,416 L 943,381 L 924,393 L 929,411 L 1042,447 L 1100,517 L 1112,606 L 1080,674 L 1059,690 L 1063,597 L 1026,536 L 950,496 L 885,492 L 805,520 L 752,569 L 692,710 L 701,723 L 723,718 L 759,617 L 817,551 L 886,527 L 848,593 L 844,662 L 892,798 L 949,855 L 1013,891 L 1093,915 L 1198,923 L 1198,892 L 1069,876 L 957,820 L 903,754 L 879,678 L 891,573 L 913,551 L 958,539 L 1020,577 L 1032,666 L 994,732 L 940,753 L 945,779 L 1078,791 L 1170,747 L 1227,662 L 1239,557 L 1219,481 L 1163,397 L 1046,316 L 934,284 L 813,288 Z" />
  </g>
</svg>