<svg xmlns="http://www.w3.org/2000/svg" viewBox="0 0 64 64" aria-hidden="true">
  <path fill="#FFFFFF" d="M32.04 6C17.7 6 6.04 17.56 6.04 31.78c0 4.55 1.22 8.99 3.54 12.9L5.82 58.36l14.08-3.67a26.16 26.16 0 0 0 12.14 3.06c14.34 0 26-11.56 26-25.78S46.38 6 32.04 6Zm0 46.34a20.5 20.5 0 0 1-10.43-2.87l-.8-.47-7.9 2.06 2.1-7.65-.5-.82a20.28 20.28 0 0 1-3.09-10.82c0-11.24 9.25-20.39 20.62-20.39s20.62 9.15 20.62 20.39-9.25 20.57-20.62 20.57Zm11.28-15.22c-.62-.31-3.68-1.8-4.24-2.01-.57-.2-.99-.31-1.4.31-.41.62-1.62 2.01-1.99 2.42-.36.42-.72.47-1.34.16-.62-.31-2.62-.96-4.98-3.05-1.84-1.64-3.09-3.67-3.45-4.29-.36-.62-.04-.95.27-1.26.28-.28.62-.72.93-1.08.31-.36.41-.62.62-1.03.2-.41.1-.77-.05-1.08-.15-.31-1.39-3.35-1.9-4.59-.5-1.21-1.02-1.05-1.4-1.07h-1.2c-.41 0-1.08.15-1.65.77-.57.62-2.17 2.11-2.17 5.16s2.22 5.98 2.53 6.39c.31.41 4.38 6.68 10.62 9.37 1.49.64 2.65 1.03 3.55 1.31 1.49.47 2.85.41 3.92.25 1.2-.18 3.68-1.49 4.19-2.94.52-1.44.52-2.68.36-2.94-.15-.26-.57-.41-1.19-.72Z"/>
</svg>
