<svg xmlns="http://www.w3.org/2000/svg" viewBox="0 0 32 32" aria-hidden="true">
  <path fill="#fff" d="M16.02 4.5A11.36 11.36 0 0 0 6.3 21.72L4.98 27.5l5.92-1.28A11.35 11.35 0 1 0 16.02 4.5Zm0 20.44a9.03 9.03 0 0 1-4.6-1.25l-.33-.2-3.5.76.78-3.4-.22-.35a9.02 9.02 0 1 1 7.87 4.44Zm5.1-6.74c-.28-.14-1.65-.81-1.9-.9-.26-.1-.45-.14-.64.14-.19.27-.73.9-.9 1.08-.16.2-.33.21-.61.07-.28-.14-1.18-.43-2.24-1.38-.83-.74-1.39-1.65-1.55-1.93-.16-.27-.02-.43.12-.56.13-.13.28-.33.42-.5.14-.16.19-.28.28-.46.1-.2.05-.35-.02-.5-.07-.13-.63-1.52-.87-2.08-.23-.55-.46-.47-.64-.48h-.54c-.19 0-.5.07-.76.35-.26.28-1 1-1 2.43s1.03 2.8 1.18 3c.14.18 2.03 3.1 4.92 4.35.69.3 1.22.47 1.64.6.69.22 1.32.19 1.82.11.55-.08 1.65-.67 1.89-1.32.23-.65.23-1.2.16-1.32-.07-.12-.26-.2-.54-.34Z"/>
</svg>
