<svg xmlns="http://www.w3.org/2000/svg" viewBox="0 0 1448 1500">
  <g fill="#000000" fill-rule="evenodd">
    <path d="M 265,1431 L 270,1431 L 273,1427 L 286,1427 L 289,1423 L 302,1423 L 305,1419 L 322,1419 L 325,1415 L 346,1415 L 349,1411 L 386,1411 L 389,1407 L 446,1407 L 449,1411 L 486,1411 L 489,1415 L 514,1415 L 517,1419 L 538,1419 L 541,1423 L 562,1423 L 565,1427 L 578,1427 L 581,1431 L 598,1431 L 601,1435 L 614,1435 L 617,1439 L 634,1439 L 637,1443 L 658,1443 L 661,1447 L 690,1447 L 693,1451 L 810,1451 L 813,1447 L 834,1447 L 837,1443 L 854,1443 L 857,1439 L 866,1439 L 869,1435 L 890,1431 L 893,1427 L 898,1427 L 901,1423 L 906,1423 L 909,1419 L 914,1419 L 917,1415 L 930,1411 L 931,1405 L 917,1408 L 914,1412 L 897,1412 L 894,1416 L 869,1416 L 866,1420 L 765,1420 L 762,1416 L 737,1416 L 734,1412 L 717,1412 L 714,1408 L 701,1408 L 698,1404 L 685,1404 L 682,1400 L 673,1400 L 670,1396 L 657,1396 L 654,1392 L 641,1392 L 638,1388 L 625,1388 L 622,1384 L 613,1384 L 610,1380 L 597,1380 L 594,1376 L 581,1376 L 578,1372 L 561,1372 L 558,1368 L 533,1368 L 530,1364 L 425,1364 L 422,1368 L 397,1368 L 394,1372 L 377,1372 L 374,1376 L 365,1376 L 362,1380 L 341,1384 L 330,1392 L 321,1392 L 318,1396 L 313,1396 L 310,1400 L 297,1404 L 290,1412 L 277,1416 L 265,1428 Z" />
    <path d="M 1134,88 L 1074,68 L 993,68 L 933,92 L 884,137 L 881,147 L 934,155 L 948,174 L 656,758 L 604,801 L 636,833 L 636,850 L 574,900 L 524,887 L 547,858 L 547,797 L 526,780 L 489,780 L 468,805 L 476,858 L 436,905 L 440,1006 L 488,1126 L 608,1181 L 608,1210 L 632,1257 L 632,1290 L 544,1301 L 548,1322 L 589,1359 L 633,1367 L 802,1359 L 946,1319 L 979,1298 L 979,1285 L 930,1248 L 878,1260 L 821,1248 L 735,1109 L 662,1060 L 581,1036 L 575,997 L 605,967 L 650,959 L 701,915 L 730,915 L 762,943 L 801,883 L 1297,523 L 1312,521 L 1333,591 L 1367,562 L 1387,526 L 1399,482 L 1399,409 L 1351,285 L 1307,221 L 1242,156 Z M 653,1139 L 662,1139 L 665,1143 L 694,1143 L 696,1146 L 700,1149 L 700,1154 L 704,1157 L 704,1162 L 708,1165 L 708,1170 L 712,1173 L 712,1178 L 714,1179 L 716,1182 L 718,1183 L 720,1186 L 722,1187 L 724,1190 L 726,1191 L 728,1194 L 730,1195 L 732,1198 L 734,1199 L 736,1202 L 738,1203 L 740,1206 L 742,1207 L 744,1210 L 746,1211 L 748,1214 L 750,1215 L 752,1218 L 754,1219 L 756,1222 L 758,1223 L 760,1226 L 768,1233 L 768,1238 L 776,1245 L 776,1250 L 784,1257 L 784,1274 L 782,1276 L 777,1276 L 774,1280 L 745,1280 L 742,1284 L 697,1284 L 694,1280 L 689,1280 L 686,1276 L 681,1276 L 679,1273 L 677,1272 L 675,1269 L 673,1268 L 671,1265 L 669,1264 L 667,1261 L 659,1254 L 659,1237 L 655,1234 L 655,1177 L 659,1174 L 659,1157 L 655,1154 L 655,1145 L 652,1143 L 652,1140 Z M 692,881 L 692,894 L 690,896 L 689,896 L 686,900 L 681,900 L 678,904 L 669,904 L 666,908 L 661,908 L 660,907 L 660,904 L 662,902 L 663,902 L 663,901 L 665,899 L 667,898 L 667,893 L 669,891 L 670,891 L 671,889 L 673,887 L 674,887 L 675,885 L 677,883 L 678,883 L 681,879 L 690,879 Z M 676,869 L 676,874 L 672,877 L 672,882 L 669,884 L 668,886 L 665,888 L 664,890 L 661,892 L 650,904 L 648,905 L 648,910 L 645,912 L 634,924 L 621,924 L 620,926 L 617,928 L 616,930 L 613,932 L 612,934 L 609,936 L 598,948 L 593,948 L 590,952 L 581,952 L 581,955 L 583,956 L 585,959 L 590,959 L 592,961 L 592,966 L 589,968 L 586,972 L 581,972 L 571,983 L 568,983 L 566,980 L 563,978 L 563,957 L 561,956 L 558,952 L 549,952 L 547,949 L 545,948 L 521,948 L 519,945 L 517,944 L 505,944 L 504,943 L 504,940 L 505,939 L 542,939 L 544,942 L 546,943 L 582,943 L 585,939 L 590,939 L 593,935 L 598,935 L 599,933 L 602,931 L 603,929 L 606,927 L 617,915 L 619,914 L 619,909 L 627,902 L 627,897 L 630,895 L 641,883 L 643,882 L 643,877 L 646,875 L 649,871 L 654,871 L 657,867 L 674,867 Z M 1255,200 L 1260,214 L 1129,363 L 1250,447 L 1288,485 L 1303,511 L 809,868 L 753,920 L 735,889 L 718,872 L 701,872 L 695,861 L 1095,398 L 1092,389 L 694,856 L 685,856 L 666,828 L 645,824 L 628,807 L 667,754 L 951,177 L 966,171 L 1020,217 L 1113,347 L 1127,342 Z" />
  </g>
</svg>